<?xml version="1.0" standalone="no"?>
<!DOCTYPE svg PUBLIC "-//W3C//DTD SVG 20010904//EN"
 "http://www.w3.org/TR/2001/REC-SVG-20010904/DTD/svg10.dtd">
<svg version="1.0" xmlns="http://www.w3.org/2000/svg"
 width="155.000000pt" height="155.000000pt" viewBox="0 0 155.000000 155.000000"
 preserveAspectRatio="xMidYMid meet">
<metadata>
Created by potrace 1.11, written by Peter Selinger 2001-2013
</metadata>
<g transform="translate(0.000000,155.000000) scale(0.100000,-0.100000)"
fill="#000000" stroke="none">
<path d="M177 1463 c-59 -17 -129 -83 -148 -139 -10 -30 -13 -151 -13 -554 0
-562 -1 -547 59 -618 15 -18 46 -43 69 -55 41 -22 44 -22 615 -24 551 -1 577
-1 627 18 65 24 116 80 134 146 15 53 21 963 7 1047 -16 91 -81 162 -172 185
-24 6 -252 9 -585 9 -446 0 -554 -3 -593 -15z"/>
</g>
</svg>
